{
    "asset" : {
        "generator" : "Khronos glTF Blender I/O v3.2.43",
        "version" : "2.0"
    },
    "scene" : 0,
    "scenes" : [
        {
            "name" : "Scene",
            "nodes" : [
                0,
                1,
                8,
                9
            ]
        }
    ],
    "nodes" : [
        {
            "mesh" : 0,
            "name" : "Cube.001"
        },
        {
            "name" : "Torus.005",
            "rotation" : [
                -0.7071068286895752,
                0,
                0,
                0.7071067094802856
            ],
            "scale" : [
                100,
                99.99999237060547,
                99.99999237060547
            ],
            "translation" : [
                0,
                0,
                -658.8181762695312
            ]
        },
        {
            "name" : "default",
            "rotation" : [
                -0.7071068286895752,
                0,
                0,
                0.7071067094802856
            ]
        },
        {
            "name" : "Character001",
            "rotation" : [
                0.70710688829422,
                0,
                0.7071066498756409,
                2.423443845600559e-07
            ],
            "translation" : [
                -0.29501497745513916,
                -0.2615692615509033,
                0
            ]
        },
        {
            "children" : [
                3
            ],
            "name" : "Dummy001",
            "rotation" : [
                -0.7071069478988647,
                0,
                0,
                0.7071065902709961
            ]
        },
        {
            "children" : [
                2,
                4
            ],
            "name" : "RootNode.001"
        },
        {
            "children" : [
                5
            ],
            "name" : "Object_2.001"
        },
        {
            "children" : [
                6
            ],
            "name" : "496e25a8020d4d6cb3c8412ad32426d4.fbx",
            "rotation" : [
                0.7071068286895752,
                0,
                0,
                0.7071067094802856
            ]
        },
        {
            "children" : [
                7
            ],
            "name" : "Sketchfab_model.001",
            "rotation" : [
                -0.6569926142692566,
                -0.2614588141441345,
                -0.2614588141441345,
                0.6569926142692566
            ],
            "scale" : [
                1.8840090036392212,
                1.8840091228485107,
                1.8840092420578003
            ],
            "translation" : [
                -0.6250946521759033,
                52.825653076171875,
                -0.11624406278133392
            ]
        },
        {
            "name" : "Object_9",
            "rotation" : [
                -0.7071068286895752,
                0,
                0,
                0.7071067094802856
            ],
            "translation" : [
                0,
                0,
                -7.91254997253418
            ]
        }
    ],
    "animations" : [
        {
            "channels" : [
                {
                    "sampler" : 0,
                    "target" : {
                        "node" : 1,
                        "path" : "rotation"
                    }
                }
            ],
            "name" : "Torus.005|Torus.004Action.001",
            "samplers" : [
                {
                    "input" : 4,
                    "interpolation" : "LINEAR",
                    "output" : 5
                }
            ]
        },
        {
            "channels" : [
                {
                    "sampler" : 0,
                    "target" : {
                        "node" : 1,
                        "path" : "rotation"
                    }
                }
            ],
            "name" : "Torus.005|Torus.004Action",
            "samplers" : [
                {
                    "input" : 4,
                    "interpolation" : "LINEAR",
                    "output" : 6
                }
            ]
        }
    ],
    "materials" : [
        {
            "doubleSided" : true,
            "name" : "Material_2",
            "normalTexture" : {
                "index" : 0
            },
            "pbrMetallicRoughness" : {
                "baseColorTexture" : {
                    "index" : 1
                },
                "metallicRoughnessTexture" : {
                    "index" : 2
                }
            }
        }
    ],
    "meshes" : [
        {
            "name" : "Cube.001-Mesh",
            "primitives" : [
                {
                    "attributes" : {
                        "POSITION" : 0,
                        "NORMAL" : 1,
                        "TEXCOORD_0" : 2
                    },
                    "indices" : 3,
                    "material" : 0
                }
            ]
        }
    ],
    "textures" : [
        {
            "sampler" : 0,
            "source" : 0
        },
        {
            "sampler" : 0,
            "source" : 1
        },
        {
            "sampler" : 0,
            "source" : 2
        }
    ],
    "images" : [
        {
            "bufferView" : 4,
            "mimeType" : "image/png",
            "name" : "Image_2"
        },
        {
            "bufferView" : 5,
            "mimeType" : "image/jpeg",
            "name" : "Image_0"
        },
        {
            "bufferView" : 6,
            "mimeType" : "image/png",
            "name" : "Image_1"
        }
    ],
    "accessors" : [
        {
            "bufferView" : 0,
            "componentType" : 5126,
            "count" : 4327,
            "max" : [
                23.640562057495117,
                204.5300750732422,
                73.02127838134766
            ],
            "min" : [
                -33.546234130859375,
                67.13157653808594,
                -122.5363540649414
            ],
            "type" : "VEC3"
        },
        {
            "bufferView" : 1,
            "componentType" : 5126,
            "count" : 4327,
            "type" : "VEC3"
        },
        {
            "bufferView" : 2,
            "componentType" : 5126,
            "count" : 4327,
            "type" : "VEC2"
        },
        {
            "bufferView" : 3,
            "componentType" : 5123,
            "count" : 23232,
            "type" : "SCALAR"
        },
        {
            "bufferView" : 7,
            "componentType" : 5126,
            "count" : 151,
            "max" : [
                6.25
            ],
            "min" : [
                0
            ],
            "type" : "SCALAR"
        },
        {
            "bufferView" : 8,
            "componentType" : 5126,
            "count" : 151,
            "type" : "VEC4"
        },
        {
            "bufferView" : 9,
            "componentType" : 5126,
            "count" : 151,
            "type" : "VEC4"
        }
    ],
    "bufferViews" : [
        {
            "buffer" : 0,
            "byteLength" : 51924,
            "byteOffset" : 0
        },
        {
            "buffer" : 0,
            "byteLength" : 51924,
            "byteOffset" : 51924
        },
        {
            "buffer" : 0,
            "byteLength" : 34616,
            "byteOffset" : 103848
        },
        {
            "buffer" : 0,
            "byteLength" : 46464,
            "byteOffset" : 138464
        },
        {
            "buffer" : 0,
            "byteLength" : 556626,
            "byteOffset" : 184928
        },
        {
            "buffer" : 0,
            "byteLength" : 38462,
            "byteOffset" : 741556
        },
        {
            "buffer" : 0,
            "byteLength" : 33626,
            "byteOffset" : 780020
        },
        {
            "buffer" : 0,
            "byteLength" : 604,
            "byteOffset" : 813648
        },
        {
            "buffer" : 0,
            "byteLength" : 2416,
            "byteOffset" : 814252
        },
        {
            "buffer" : 0,
            "byteLength" : 2416,
            "byteOffset" : 816668
        }
    ],
    "samplers" : [
        {
            "magFilter" : 9729,
            "minFilter" : 9987
        }
    ],
    "buffers" : [
        {
            "byteLength" : 819084,
            "uri" : "data:application/octet-stream;base64,"
        }
    ]
}
